<?xml version="1.0" encoding="UTF-8"?>
<svg id="Layer_2" data-name="Layer 2" xmlns="http://www.w3.org/2000/svg" viewBox="0 0 538.15 132.33">
  <defs>
    <style>
      .cls-1 {
        fill: #91a88c;
      }

      .cls-1, .cls-2 {
        stroke-width: 0px;
      }

      .cls-3 {
        isolation: isolate;
      }

      .cls-4 {
        stroke: #91a88c;
      }

      .cls-4, .cls-2 {
        fill: none;
      }
    </style>
  </defs>
  <g id="Layer_1-2" data-name="Layer 1">
    <g>
      <path class="cls-1" d="m50,50.95c1.22,3.57,2.55,4.03,4.18,4.26v.38h-10.6v-.38c.87-.04,2.74-.08,2.74-2.05,0-.34-.04-.76-.46-1.98l-2.28-6.73h-8.78l-2.01,6.27c-.3.91-.46,1.86-.46,2.28,0,2.05,1.63,2.17,2.28,2.2v.38h-7.29v-.38c2.24-.15,3.31-1.98,3.88-3.72l7.52-23.59h3.38l7.9,23.06Zm-14.78-7.83h7.9l-4.03-11.93h-.08l-3.8,11.93Z"/>
      <path class="cls-1" d="m82.64,49.2v-17.48c0-2.81-1.9-3-3.12-3.08v-.38h7.56v.38c-1.25.08-3.12.27-3.12,3.08v24.54h-.46l-20.25-22.8v18.62c0,2.96,1.94,3.08,3.08,3.12v.38h-7.48v-.38c1.14-.04,3.08-.19,3.08-3.12v-20.06l-1.06-1.22s-.11-.08-.15-.15c-1.6-1.86-2.7-1.94-3.53-2.01v-.38h6.69l18.77,20.94Z"/>
      <path class="cls-1" d="m119.35,44.07v.38c-2.85.3-3.15,2.13-3.15,4.29v6.34c-1.14.34-3.76,1.18-7.9,1.18-5.78,0-8.85-1.37-11.36-3.46-3.04-2.55-4.86-6.46-4.86-10.68,0-7.26,5.93-14.51,14.7-14.51,2.51,0,4.79.38,5.7.57.49.11,1.63.34,2.05.34.76,0,1.37-.38,1.48-1.22h.38v8.24h-.38c-.84-3.99-4.71-6.92-9.12-6.92-6.65,0-9.92,6.08-9.92,13.22,0,3.95,1.14,13.34,10.98,13.34,2.13,0,3.5-.65,3.95-1.33.27-.46.42-1.25.42-3.57,0-2.77,0-5.55-3.61-5.85v-.38h10.64Z"/>
      <path class="cls-1" d="m135.39,41.34c.68,0,3.5,0,3.72-2.81h.38v6.73h-.38c-.15-1.86-1.41-2.89-3.46-2.89h-5.4v9.23c0,1.14-.04,2.96,2.81,2.96h3.65c2.58,0,3.84-.84,4.52-3.38h.38l-.8,4.41h-17.74v-.38c1.14,0,3.12-.11,3.12-3.19v-20.18c0-.3.04-3.19-2.74-3.19h-.38v-.38h17.74v4.45h-.38c0-2.55-1.44-3.42-3.72-3.42h-6.46v12.04h5.13Z"/>
      <path class="cls-1" d="m163.66,55.59h-18.09v-.38c1.14-.04,3.12-.19,3.12-3.12v-20.29c0-2.89-1.9-3.08-3.12-3.15v-.38h10.3v.38c-1.29.08-3.12.3-3.12,3.15v18.69c0,4.07,1.18,4.07,5.43,4.07,3.88,0,5.05-.68,5.89-4.07h.34l-.76,5.09Z"/>
      <path class="cls-1" d="m190.41,50.95c1.22,3.57,2.55,4.03,4.18,4.26v.38h-10.6v-.38c.87-.04,2.74-.08,2.74-2.05,0-.34-.04-.76-.46-1.98l-2.28-6.73h-8.78l-2.01,6.27c-.3.91-.46,1.86-.46,2.28,0,2.05,1.63,2.17,2.28,2.2v.38h-7.29v-.38c2.24-.15,3.31-1.98,3.88-3.72l7.52-23.59h3.38l7.9,23.06Zm-14.78-7.83h7.9l-4.03-11.93h-.08l-3.8,11.93Z"/>
      <path class="cls-1" d="m209.98,55.59v-.38c1.14,0,3.12-.53,3.12-3.12v-20.25c0-2.93-1.98-3.19-3.12-3.19v-.38h9.5c4.45,0,6.95,1.14,8.36,2.55,1.44,1.44,1.75,3.12,1.75,4.18,0,.53,0,4.71-5.4,6.04v.08c6.19.8,7.94,4.56,7.94,7.37,0,1.63-.68,3.42-2.17,4.79-1.52,1.37-3.84,2.32-7.22,2.32h-12.77Zm7.18-14.82h1.56c2.47,0,6.34-.49,6.34-5.24,0-3.69-2.43-6.23-5.93-6.23-.84,0-1.52.15-1.98.23v11.25Zm0,1.03v8.59c0,2.09.34,4.18,4.07,4.18,4.37,0,6.23-2.81,6.23-5.93s-1.82-4.75-2.62-5.32c-.72-.53-2.17-1.52-5.93-1.52h-1.75Z"/>
      <path class="cls-1" d="m257.78,50.95c1.22,3.57,2.55,4.03,4.18,4.26v.38h-10.6v-.38c.87-.04,2.74-.08,2.74-2.05,0-.34-.04-.76-.46-1.98l-2.28-6.73h-8.78l-2.01,6.27c-.3.91-.46,1.86-.46,2.28,0,2.05,1.63,2.17,2.28,2.2v.38h-7.29v-.38c2.24-.15,3.31-1.98,3.88-3.72l7.52-23.59h3.38l7.9,23.06Zm-14.78-7.83h7.9l-4.03-11.93h-.08l-3.8,11.93Z"/>
      <path class="cls-1" d="m274.89,28.27c3.53,0,4.94.3,6,.72,2.7,1.06,4.29,3.42,4.29,6.27,0,3.34-2.13,5.81-6.19,6.54v.08c2.28.68,3.61,2.55,5.28,4.98l.19.23,2.43,3.76s.08.11.11.19c2.05,3.27,3.57,3.91,4.9,4.18v.38h-6.46c-.38-.46-.72-.8-1.22-1.56-.15-.19-.72-.99-.8-1.06-.04-.08-.08-.15-.11-.19l-3.65-5.55s-.04-.08-.19-.3c-.04-.08-1.79-2.89-3.53-3.76-.72-.34-1.37-.53-3.27-.61v9.46c0,2.28,1.18,3.19,3.08,3.19v.38h-10.26v-.38c2.09,0,3.08-.99,3.08-3.12v-20.25c0-3-1.98-3.19-3.12-3.19v-.38h9.42Zm-2.2,13.26c3.38,0,8.13-.23,8.13-5.96,0-1.98-.87-6.27-5.81-6.27-.68,0-1.71,0-2.32.23v12.01Z"/>
      <path class="cls-1" d="m319,28.27v.38c-3.19.42-4.29,1.44-6.23,3.31l-6.57,7.33,9.76,12.35s.04.04.23.27c1.98,2.28,2.58,2.96,5.05,3.31v.38h-7.26l-10.83-13.75h-.08v10.26c0,2.85,1.86,3.04,3.12,3.12v.38h-10.3v-.38c1.18-.04,3.12-.23,3.12-3.12v-20.33c0-2.96-1.98-3.04-3.12-3.12v-.38h10.3v.38c-1.18.08-3.12.23-3.12,3.12v9.42l8.17-9.04c.49-.53,1.18-1.44,1.18-2.05,0-.76-.53-1.33-1.94-1.44v-.38h8.51Z"/>
      <path class="cls-1" d="m337.24,41.34c.68,0,3.5,0,3.72-2.81h.38v6.73h-.38c-.15-1.86-1.41-2.89-3.46-2.89h-5.4v9.23c0,1.14-.04,2.96,2.81,2.96h3.65c2.58,0,3.84-.84,4.52-3.38h.38l-.8,4.41h-17.74v-.38c1.14,0,3.12-.11,3.12-3.19v-20.18c0-.3.04-3.19-2.74-3.19h-.38v-.38h17.74v4.45h-.38c0-2.55-1.44-3.42-3.72-3.42h-6.46v12.04h5.13Z"/>
      <path class="cls-1" d="m356.78,28.27c3.53,0,4.94.3,6,.72,2.7,1.06,4.29,3.42,4.29,6.27,0,3.34-2.13,5.81-6.19,6.54v.08c2.28.68,3.61,2.55,5.28,4.98l.19.23,2.43,3.76s.08.11.11.19c2.05,3.27,3.57,3.91,4.9,4.18v.38h-6.46c-.38-.46-.72-.8-1.22-1.56-.15-.19-.72-.99-.8-1.06-.04-.08-.08-.15-.11-.19l-3.65-5.55s-.04-.08-.19-.3c-.04-.08-1.79-2.89-3.53-3.76-.72-.34-1.37-.53-3.27-.61v9.46c0,2.28,1.18,3.19,3.08,3.19v.38h-10.26v-.38c2.09,0,3.08-.99,3.08-3.12v-20.25c0-3-1.98-3.19-3.12-3.19v-.38h9.42Zm-2.2,13.26c3.38,0,8.13-.23,8.13-5.96,0-1.98-.87-6.27-5.81-6.27-.68,0-1.71,0-2.32.23v12.01Z"/>
      <path class="cls-1" d="m387.48,42.97h-9.27v-1.98h9.27v1.98Z"/>
      <path class="cls-1" d="m409.82,55.59h-18.08v-.38c1.14-.04,3.12-.19,3.12-3.12v-20.29c0-2.89-1.9-3.08-3.12-3.15v-.38h10.3v.38c-1.29.08-3.12.3-3.12,3.15v18.69c0,4.07,1.18,4.07,5.43,4.07,3.88,0,5.05-.68,5.89-4.07h.34l-.76,5.09Z"/>
      <path class="cls-1" d="m426.62,41.34c.68,0,3.5,0,3.72-2.81h.38v6.73h-.38c-.15-1.86-1.41-2.89-3.46-2.89h-5.4v9.23c0,1.14-.04,2.96,2.81,2.96h3.65c2.58,0,3.84-.84,4.52-3.38h.38l-.8,4.41h-17.74v-.38c1.14,0,3.12-.11,3.12-3.19v-20.18c0-.3.04-3.19-2.74-3.19h-.38v-.38h17.74v4.45h-.38c0-2.55-1.44-3.42-3.72-3.42h-6.46v12.04h5.13Z"/>
      <path class="cls-1" d="m446.87,28.27v.38c-1.41.08-2.43.72-2.43,2.32,0,.65.49,2.47.53,2.58l4.6,15.05h.08l5.59-16.38c-.42-1.18-1.25-3.57-3.61-3.57v-.38h10.45v.38c-.61.04-2.74.04-2.74,2.39,0,.34.11,1.06.27,1.63.04.04.11.27.11.34l4.75,15.58h.08l4.79-14.29c.34-.99.76-2.47.76-3.46,0-1.56-.84-2.05-2.43-2.2v-.38h7.41v.38c-1.75.42-2.74.68-4.41,5.66l-7.41,21.96h-.49l-6.88-22.23h-.08l-7.45,22.23h-.49l-7.18-22.99c-1.18-3.8-2.24-4.48-4.1-4.64v-.38h10.3Z"/>
      <path class="cls-1" d="m489.4,55.59h-10.22v-.38c1.14-.04,3.08-.19,3.08-3.12v-20.36c0-2.85-1.9-3-3.08-3.08v-.38h10.22v.38c-1.14.08-3.08.23-3.08,3.08v20.36c0,2.96,1.94,3.08,3.08,3.12v.38Z"/>
      <path class="cls-1" d="m508.93,33.93c-.57-3.08-2.55-5.32-5.93-5.32-3.19,0-4.83,2.24-4.83,4.48,0,2.96,2.74,4.83,5.58,6.61,3.91,2.47,7.07,4.37,7.07,8.74,0,1.71-.46,3.8-2.51,5.7-1.86,1.75-3.69,2.13-5.93,2.13-1.82,0-3.23-.38-4.26-.8-1.56-.65-1.75-.72-2.17-.72s-1.03.19-1.1,1.14h-.38l.3-6.99h.38c.15,1.03.53,3.15,2.51,4.71,1.22.95,3.19,1.6,4.71,1.6,2.7,0,4.98-2.13,4.98-4.83s-2.09-4.52-5.85-6.84c-3.23-2.01-6.5-4.06-6.5-8.62,0-3.31,2.28-7.29,7.94-7.29,1.25,0,2.66.19,3.69.53.46.15,1.14.34,1.56.34.04,0,.84-.04,1.03-.91h.38l-.3,6.35h-.38Z"/>
    </g>
    <line id="Line_5" data-name="Line 5" class="cls-4" x1="27.32" y1="72.95" x2="510.83" y2="72.95"/>
    <g id="Planting_design_Horticulture" data-name="Planting design Horticulture" class="cls-3">
      <g class="cls-3">
        <path class="cls-1" d="m80.07,105.01v-14.4h5.56c.14,0,.3,0,.48.02.18,0,.35.03.54.06.75.11,1.39.38,1.91.79s.92.92,1.19,1.54.4,1.31.4,2.06-.14,1.43-.41,2.05-.67,1.13-1.19,1.54-1.16.67-1.9.79c-.18.03-.36.05-.54.06-.18.01-.33.02-.48.02h-4.09v5.47h-1.47Zm1.47-6.87h4.05c.12,0,.26,0,.42-.02.16-.01.32-.04.47-.07.49-.11.9-.31,1.21-.61.32-.3.55-.66.71-1.07.16-.41.24-.84.24-1.29s-.08-.88-.24-1.29c-.16-.42-.39-.78-.71-1.08-.32-.3-.72-.5-1.21-.61-.15-.03-.31-.05-.47-.06-.16-.01-.3-.02-.42-.02h-4.05v6.12Z"/>
        <path class="cls-1" d="m94.15,105.01v-14.4h1.47v12.99h6.84v1.41h-8.31Z"/>
        <path class="cls-1" d="m104.96,105.01l4.96-14.4h1.95l4.96,14.4h-1.53l-4.71-13.58h.58l-4.68,13.58h-1.53Zm2.21-3.49v-1.38h7.44v1.38h-7.44Z"/>
        <path class="cls-1" d="m120.43,105.01v-14.4h1.48l7.93,11.8v-11.8h1.48v14.4h-1.48l-7.93-11.81v11.81h-1.48Z"/>
        <path class="cls-1" d="m139.75,105.01v-12.99h-5.03v-1.41h11.53v1.41h-5.03v12.99h-1.47Z"/>
        <path class="cls-1" d="m149.85,105.01v-14.4h1.47v14.4h-1.47Z"/>
        <path class="cls-1" d="m156.12,105.01v-14.4h1.48l7.93,11.8v-11.8h1.48v14.4h-1.48l-7.93-11.81v11.81h-1.48Z"/>
        <path class="cls-1" d="m177.38,105.31c-1.01,0-1.93-.18-2.74-.53-.81-.35-1.5-.86-2.08-1.51-.57-.65-1-1.44-1.3-2.37-.3-.92-.45-1.95-.45-3.09,0-1.51.26-2.82.79-3.94.52-1.12,1.28-2,2.25-2.62.98-.62,2.16-.93,3.53-.93,1.53,0,2.78.36,3.75,1.08.96.72,1.63,1.68,2.01,2.88l-1.48.36c-.31-.88-.83-1.58-1.55-2.11-.72-.53-1.61-.79-2.67-.79-1.13,0-2.06.24-2.81.75-.75.51-1.31,1.22-1.69,2.14-.38.92-.57,1.97-.57,3.17,0,1.2.18,2.25.55,3.17s.94,1.62,1.7,2.14c.75.52,1.69.78,2.82.78,1.03,0,1.89-.2,2.56-.6.67-.4,1.18-.97,1.54-1.72.35-.75.55-1.63.59-2.65h-3.32v-1.26h4.86c.02.15.03.31.04.48,0,.17,0,.29,0,.37,0,1.3-.23,2.46-.7,3.49s-1.17,1.83-2.11,2.42-2.11.88-3.52.88Z"/>
        <path class="cls-1" d="m193.31,105.01v-14.4h4.37c.15,0,.42,0,.79.01.37,0,.72.03,1.06.08,1.09.15,2.01.56,2.74,1.22s1.28,1.5,1.65,2.52c.37,1.02.55,2.14.55,3.37s-.18,2.35-.55,3.37c-.37,1.02-.92,1.86-1.65,2.52-.73.66-1.65,1.07-2.74,1.22-.33.04-.69.06-1.07.08-.38,0-.64.01-.78.01h-4.37Zm1.52-1.41h2.85c.27,0,.57,0,.88-.02s.59-.05.82-.1c.84-.15,1.52-.49,2.03-1.02s.9-1.2,1.14-2c.24-.8.36-1.69.36-2.65s-.12-1.85-.36-2.66c-.24-.81-.62-1.47-1.14-2-.52-.53-1.2-.86-2.03-1.01-.23-.05-.5-.08-.83-.09s-.62-.03-.88-.03h-2.85v11.58Z"/>
        <path class="cls-1" d="m208.54,105.01v-14.4h9v1.41h-7.53v4.98h6.33v1.41h-6.33v5.19h7.53v1.41h-9Z"/>
        <path class="cls-1" d="m226.21,105.31c-1.01,0-1.91-.17-2.71-.5s-1.47-.81-1.99-1.43-.86-1.36-1.02-2.21l1.5-.25c.24.93.75,1.67,1.52,2.19.77.53,1.7.79,2.77.79.71,0,1.34-.11,1.9-.33.56-.22,1-.54,1.32-.96.32-.41.48-.9.48-1.47,0-.37-.07-.69-.2-.96-.13-.26-.31-.48-.53-.66-.22-.17-.46-.32-.72-.43-.26-.12-.51-.21-.76-.29l-3.65-1.09c-.44-.13-.85-.29-1.22-.49-.37-.2-.7-.43-.98-.71-.28-.28-.49-.6-.64-.97s-.23-.8-.23-1.28c0-.81.21-1.52.64-2.11.43-.59,1.01-1.05,1.75-1.37.74-.32,1.58-.48,2.53-.47.96,0,1.82.17,2.58.51s1.38.82,1.88,1.46c.49.63.82,1.38.98,2.23l-1.54.28c-.1-.63-.33-1.17-.69-1.63-.36-.46-.82-.82-1.38-1.07s-1.17-.38-1.83-.38c-.65,0-1.22.11-1.72.33-.5.22-.9.51-1.2.88s-.44.8-.44,1.28.14.88.41,1.17c.27.29.6.52,1,.69.4.17.78.3,1.16.41l2.82.83c.29.08.64.2,1.03.34.4.15.78.36,1.16.64.38.28.69.64.94,1.08.25.45.37,1.01.37,1.7s-.13,1.26-.4,1.79c-.26.53-.63.97-1.11,1.33-.48.36-1.03.63-1.67.82-.64.19-1.33.29-2.08.29Z"/>
        <path class="cls-1" d="m235.54,105.01v-14.4h1.47v14.4h-1.47Z"/>
        <path class="cls-1" d="m247.58,105.31c-1.01,0-1.93-.18-2.74-.53-.81-.35-1.5-.86-2.08-1.51-.57-.65-1-1.44-1.3-2.37-.3-.92-.45-1.95-.45-3.09,0-1.51.26-2.82.79-3.94.52-1.12,1.28-2,2.25-2.62.98-.62,2.16-.93,3.53-.93,1.53,0,2.78.36,3.75,1.08.96.72,1.63,1.68,2.01,2.88l-1.48.36c-.31-.88-.83-1.58-1.55-2.11-.72-.53-1.61-.79-2.67-.79-1.13,0-2.06.24-2.81.75-.75.51-1.31,1.22-1.69,2.14-.38.92-.57,1.97-.57,3.17,0,1.2.18,2.25.55,3.17s.94,1.62,1.7,2.14c.75.52,1.69.78,2.82.78,1.03,0,1.89-.2,2.56-.6.67-.4,1.18-.97,1.54-1.72.35-.75.55-1.63.59-2.65h-3.32v-1.26h4.86c.02.15.03.31.04.48,0,.17,0,.29,0,.37,0,1.3-.23,2.46-.7,3.49s-1.17,1.83-2.11,2.42-2.11.88-3.52.88Z"/>
        <path class="cls-1" d="m257.71,105.01v-14.4h1.48l7.93,11.8v-11.8h1.48v14.4h-1.48l-7.93-11.81v11.81h-1.48Z"/>
        <path class="cls-1" d="m283.63,105.31c-.8,0-1.54-.12-2.22-.34-.68-.23-1.25-.59-1.71-1.08-.36-.39-.63-.82-.8-1.29-.17-.48-.27-.98-.29-1.52,0-.51.07-1.01.22-1.51s.39-.94.72-1.33c.19-.24.41-.44.66-.6s.5-.3.75-.41c-.5-.52-.88-1-1.14-1.45-.26-.44-.4-.99-.4-1.63,0-.74.19-1.42.57-2.03.38-.61.9-1.07,1.56-1.37.34-.15.69-.26,1.04-.33.36-.06.71-.1,1.07-.1.54,0,1.07.08,1.59.23.52.15.96.38,1.33.71.25.19.46.42.65.68.19.26.33.54.44.83l-1.42.42c-.14-.36-.37-.66-.7-.91-.25-.2-.54-.34-.88-.42s-.66-.12-1-.12c-.57,0-1.08.11-1.54.33-.4.2-.7.48-.9.83s-.3.77-.3,1.24c0,.41.07.74.2,1,.13.26.33.55.58.86.15.16.31.32.49.48.18.16.36.33.55.5l4.56,4.23c.03-.19.04-.37.05-.54s0-.35,0-.53v-2.11s1.38,0,1.38,0v2.21c0,.53-.02.96-.06,1.29-.04.33-.09.61-.16.83l1.86,1.71-.97,1.03-1.59-1.5c-.22.29-.5.54-.83.77s-.67.4-1,.53c-.36.16-.74.27-1.14.33-.4.06-.81.08-1.22.08Zm.02-1.42c.38,0,.72-.02,1.03-.07.31-.05.6-.14.88-.29.35-.19.62-.36.79-.52.17-.16.31-.31.42-.44l-4.68-4.28c-.28.09-.54.21-.79.35-.24.15-.45.33-.62.54-.19.24-.34.52-.43.83-.09.31-.14.64-.14.99.01.37.08.71.18,1.01.11.31.28.58.5.83.31.37.73.63,1.26.8.53.17,1.06.25,1.6.25Z"/>
        <path class="cls-1" d="m299.63,105.01v-14.4h1.47v6.49h7.96v-6.49h1.46v14.4h-1.46v-6.5h-7.96v6.5h-1.47Z"/>
        <path class="cls-1" d="m320.95,105.31c-1.43,0-2.64-.32-3.63-.96-.99-.64-1.73-1.52-2.24-2.64s-.76-2.43-.76-3.9.25-2.77.76-3.9c.51-1.13,1.25-2.01,2.24-2.65.99-.64,2.2-.96,3.63-.96s2.65.32,3.63.96,1.73,1.52,2.24,2.65c.51,1.13.76,2.43.76,3.9s-.25,2.77-.76,3.9-1.26,2.01-2.24,2.64-2.2.96-3.63.96Zm0-1.41c1.13,0,2.07-.26,2.82-.77.75-.51,1.32-1.23,1.7-2.15.38-.92.57-1.97.57-3.17s-.19-2.26-.57-3.17-.94-1.63-1.7-2.14c-.75-.51-1.69-.77-2.82-.78-1.13,0-2.06.26-2.81.77-.75.51-1.31,1.23-1.68,2.14-.38.92-.57,1.97-.58,3.17s.18,2.25.55,3.17c.38.91.94,1.62,1.7,2.14s1.69.78,2.82.78Z"/>
        <path class="cls-1" d="m331.39,105.01v-14.4h5.56c.14,0,.3,0,.47.02s.36.03.54.06c.75.11,1.39.38,1.92.79s.92.92,1.19,1.54c.27.62.4,1.31.4,2.06,0,1.09-.29,2.03-.86,2.83-.57.8-1.39,1.3-2.46,1.51l-.51.12h-4.78v5.47h-1.47Zm1.47-6.87h4.05c.12,0,.26,0,.42-.02.16-.01.32-.04.47-.07.49-.11.9-.31,1.21-.61.32-.3.55-.66.71-1.07.16-.41.24-.84.24-1.29s-.08-.88-.24-1.29c-.16-.42-.39-.78-.71-1.08-.32-.3-.72-.5-1.21-.61-.15-.03-.31-.05-.47-.06-.16-.01-.3-.02-.42-.02h-4.05v6.12Zm7.25,6.87l-2.84-5.86,1.41-.54,3.12,6.4h-1.69Z"/>
        <path class="cls-1" d="m349.63,105.01v-12.99h-5.03v-1.41h11.53v1.41h-5.03v12.99h-1.47Z"/>
        <path class="cls-1" d="m359.73,105.01v-14.4h1.47v14.4h-1.47Z"/>
        <path class="cls-1" d="m371.83,105.31c-1.43,0-2.64-.32-3.63-.96s-1.73-1.52-2.24-2.64c-.51-1.13-.76-2.43-.76-3.9s.25-2.77.76-3.9c.51-1.13,1.25-2.01,2.24-2.65s2.2-.96,3.63-.96c1.67,0,3.04.43,4.1,1.29,1.06.86,1.79,2,2.18,3.45l-1.5.39c-.31-1.14-.86-2.04-1.65-2.71-.79-.67-1.84-1-3.13-1-1.13,0-2.06.26-2.81.77-.75.51-1.31,1.23-1.69,2.14-.38.92-.57,1.97-.58,3.17,0,1.2.18,2.26.56,3.17.38.91.94,1.63,1.7,2.15.76.52,1.7.77,2.83.77,1.29,0,2.34-.33,3.13-1,.79-.67,1.34-1.57,1.65-2.71l1.5.39c-.39,1.44-1.12,2.59-2.18,3.44-1.06.86-2.43,1.29-4.1,1.29Z"/>
        <path class="cls-1" d="m387.73,105.31c-1.1,0-2.07-.23-2.92-.68-.84-.45-1.5-1.09-1.98-1.92-.48-.83-.72-1.79-.72-2.9v-9.19h1.48s0,9,0,9c0,.75.13,1.39.38,1.93.25.54.58.99,1,1.34.41.35.86.61,1.34.78s.96.25,1.42.25.94-.08,1.43-.25c.49-.17.93-.42,1.34-.78.41-.35.74-.8.99-1.34.25-.54.38-1.19.38-1.93v-9.01h1.48v9.2c0,1.11-.24,2.07-.72,2.9-.48.82-1.14,1.46-1.99,1.92-.84.46-1.81.68-2.92.68Z"/>
        <path class="cls-1" d="m398.15,105.01v-14.4h1.47v12.99h6.84v1.41h-8.31Z"/>
        <path class="cls-1" d="m411.79,105.01v-12.99h-5.03v-1.41h11.53v1.41h-5.03v12.99h-1.47Z"/>
        <path class="cls-1" d="m427.31,105.31c-1.1,0-2.07-.23-2.92-.68-.84-.45-1.5-1.09-1.99-1.92-.48-.83-.72-1.79-.72-2.9v-9.19h1.48s0,9,0,9c0,.75.13,1.39.38,1.93.25.54.59.99,1,1.34.41.35.86.61,1.35.78.49.17.96.25,1.42.25s.94-.08,1.43-.25.93-.42,1.34-.78c.41-.35.74-.8.99-1.34.25-.54.38-1.19.38-1.93v-9.01h1.48v9.2c0,1.11-.24,2.07-.72,2.9-.48.82-1.14,1.46-1.98,1.92-.84.46-1.82.68-2.92.68Z"/>
        <path class="cls-1" d="m437.53,105.01v-14.4h5.56c.14,0,.3,0,.47.02s.36.03.54.06c.75.11,1.39.38,1.92.79s.92.92,1.19,1.54c.27.62.4,1.31.4,2.06,0,1.09-.29,2.03-.86,2.83-.57.8-1.39,1.3-2.46,1.51l-.51.12h-4.78v5.47h-1.47Zm1.47-6.87h4.05c.12,0,.26,0,.42-.02.16-.01.32-.04.47-.07.49-.11.9-.31,1.21-.61.32-.3.55-.66.71-1.07.16-.41.24-.84.24-1.29s-.08-.88-.24-1.29c-.16-.42-.39-.78-.71-1.08-.32-.3-.72-.5-1.21-.61-.15-.03-.31-.05-.47-.06-.16-.01-.3-.02-.42-.02h-4.05v6.12Zm7.25,6.87l-2.84-5.86,1.41-.54,3.12,6.4h-1.69Z"/>
        <path class="cls-1" d="m451.94,105.01v-14.4h9v1.41h-7.53v4.98h6.33v1.41h-6.33v5.19h7.53v1.41h-9Z"/>
      </g>
    </g>
    <rect class="cls-2" width="538.15" height="132.33"/>
  </g>
</svg>