<?xml version="1.0" encoding="UTF-8"?>
<svg id="Layer_2" data-name="Layer 2" xmlns="http://www.w3.org/2000/svg" viewBox="0 0 37.2 30.24">
  <defs>
    <style>
      .cls-1 {
        fill: #91a88c;
        stroke-width: 0px;
      }

      .cls-2 {
        isolation: isolate;
      }
    </style>
  </defs>
  <g id="Layer_1-2" data-name="Layer 1">
    <g id="_" data-name=" " class="cls-2">
      <g class="cls-2">
        <path class="cls-1" d="m9.12,30.24c-1.76,0-3.2-.36-4.32-1.08-1.12-.72-2.04-1.64-2.76-2.76-.88-1.28-1.44-2.68-1.68-4.2-.24-1.52-.36-2.76-.36-3.72,0-3.92,1-7.48,3-10.68,2-3.2,5.12-5.8,9.36-7.8l1.08,2.16c-2.48,1.04-4.62,2.68-6.42,4.92-1.8,2.24-2.7,4.52-2.7,6.84,0,.96.12,1.8.36,2.52,1.28-1.04,2.76-1.56,4.44-1.56,2.08,0,3.88.68,5.4,2.04,1.52,1.36,2.28,3.24,2.28,5.64,0,2.24-.76,4.08-2.28,5.52-1.52,1.44-3.32,2.16-5.4,2.16Zm20.4,0c-1.76,0-3.2-.36-4.32-1.08-1.12-.72-2.04-1.64-2.76-2.76-.88-1.28-1.44-2.68-1.68-4.2-.24-1.52-.36-2.76-.36-3.72,0-3.92,1-7.48,3-10.68,2-3.2,5.12-5.8,9.36-7.8l1.08,2.16c-2.48,1.04-4.62,2.68-6.42,4.92-1.8,2.24-2.7,4.52-2.7,6.84,0,.96.12,1.8.36,2.52,1.28-1.04,2.76-1.56,4.44-1.56,2.08,0,3.88.68,5.4,2.04,1.52,1.36,2.28,3.24,2.28,5.64,0,2.24-.76,4.08-2.28,5.52-1.52,1.44-3.32,2.16-5.4,2.16Z"/>
      </g>
    </g>
  </g>
</svg>